G04 DipTrace 3.3.1.3*
G04 BottomSilk.gbr*
%MOIN*%
G04 #@! TF.FileFunction,Legend,Bot*
G04 #@! TF.Part,Single*
%ADD10C,0.009843*%
%ADD17C,0.005906*%
%ADD49C,0.004632*%
%ADD50C,0.009264*%
%ADD51C,0.006176*%
%ADD53C,0.012351*%
%FSLAX26Y26*%
G04*
G70*
G90*
G75*
G01*
G04 BotSilk*
%LPD*%
X848924Y2512240D2*
D10*
Y2464989D1*
X919788Y2512240D2*
Y2464989D1*
X940600Y2619846D2*
X828100D1*
Y2376101D1*
X940600Y2582359D2*
X834355D1*
X940600Y2376101D2*
X828100D1*
X940600Y2619846D2*
Y2376101D1*
X615010Y2065590D2*
G02X766191Y2065590I75590J66583D01*
G01*
X615010D1*
X608760Y1784340D2*
G02X759941Y1784340I75590J66583D01*
G01*
X608760D1*
X560420Y3019533D2*
Y3169537D1*
X885446Y3019533D2*
X885411Y3169537D1*
X560420D2*
X885446D1*
X560420Y2932026D2*
Y2907017D1*
X885446D1*
Y2932026D1*
X1846850Y1128934D2*
X1046850D1*
Y3245175D1*
X1846850D1*
Y1128934D1*
G36*
X1612887Y3174015D2*
X1625387Y3149015D1*
X1600386D1*
D1*
X1612887Y3174015D1*
G37*
Y3149015D2*
D17*
Y3117766D1*
G36*
X1281636Y3174015D2*
X1294136Y3149015D1*
X1269136D1*
D1*
X1281636Y3174015D1*
G37*
Y3149015D2*
D17*
Y3117766D1*
X950776Y2506893D2*
D49*
X980920Y2506892D1*
Y2496844D1*
X979461Y2492533D1*
X976609Y2489648D1*
X973724Y2488222D1*
X969446Y2486797D1*
X962250D1*
X957939Y2488222D1*
X955087Y2489648D1*
X952202Y2492534D1*
X950776Y2496845D1*
Y2506893D1*
X956546Y2477533D2*
X955087Y2474648D1*
X950809Y2470337D1*
X980920D1*
X701699Y2276840D2*
X704551Y2275448D1*
X707436Y2272563D1*
X708862Y2269678D1*
X710321Y2265366D1*
Y2258204D1*
X708862Y2253893D1*
X707436Y2251041D1*
X704551Y2248156D1*
X701699Y2246730D1*
X695962D1*
X693077Y2248156D1*
X690225Y2251041D1*
X688799Y2253893D1*
X687340Y2258204D1*
Y2265366D1*
X688799Y2269678D1*
X690225Y2272563D1*
X693077Y2275448D1*
X695962Y2276840D1*
X701699D1*
X697388Y2252467D2*
X688799Y2243845D1*
X678076Y2271070D2*
X675191Y2272529D1*
X670880Y2276807D1*
Y2246696D1*
X752918Y2055415D2*
Y2025271D1*
X739984D1*
X735673Y2026730D1*
X734247Y2028156D1*
X732822Y2031008D1*
Y2035319D1*
X734247Y2038204D1*
X735673Y2039630D1*
X739984Y2041056D1*
X735673Y2042515D1*
X734247Y2043941D1*
X732822Y2046793D1*
Y2049678D1*
X734247Y2052530D1*
X735673Y2053989D1*
X739984Y2055415D1*
X752918D1*
Y2041056D2*
X739984D1*
X703462Y2051104D2*
X706314Y2053989D1*
X710625Y2055415D1*
X716362D1*
X720673Y2053989D1*
X723558Y2051104D1*
Y2048252D1*
X722099Y2045367D1*
X720673Y2043941D1*
X717821Y2042515D1*
X709199Y2039630D1*
X706314Y2038204D1*
X704888Y2036745D1*
X703462Y2033893D1*
Y2029582D1*
X706314Y2026730D1*
X710625Y2025271D1*
X716362D1*
X720673Y2026730D1*
X723558Y2029582D1*
X694198Y2049645D2*
X691313Y2051104D1*
X687002Y2055382D1*
Y2025271D1*
X672002D2*
X657643Y2055382D1*
X677739D1*
X639757D2*
X644068Y2053956D1*
X646953Y2049645D1*
X648379Y2042482D1*
Y2038171D1*
X646953Y2031008D1*
X644068Y2026697D1*
X639757Y2025271D1*
X636905D1*
X632594Y2026697D1*
X629742Y2031008D1*
X628283Y2038171D1*
Y2042482D1*
X629742Y2049645D1*
X632594Y2053956D1*
X636905Y2055382D1*
X639757D1*
X629742Y2049645D2*
X646953Y2031008D1*
X701899Y1995590D2*
X704751Y1994198D1*
X707636Y1991313D1*
X709062Y1988428D1*
X710521Y1984116D1*
Y1976954D1*
X709062Y1972643D1*
X707636Y1969791D1*
X704751Y1966906D1*
X701899Y1965480D1*
X696162D1*
X693277Y1966906D1*
X690425Y1969791D1*
X688999Y1972643D1*
X687540Y1976954D1*
Y1984116D1*
X688999Y1988428D1*
X690425Y1991313D1*
X693277Y1994198D1*
X696162Y1995590D1*
X701899D1*
X697588Y1971217D2*
X688999Y1962595D1*
X676817Y1988394D2*
Y1989820D1*
X675391Y1992705D1*
X673965Y1994131D1*
X671080Y1995557D1*
X665343D1*
X662491Y1994131D1*
X661065Y1992705D1*
X659606Y1989820D1*
Y1986968D1*
X661065Y1984083D1*
X663917Y1979805D1*
X678276Y1965446D1*
X658180D1*
X746668Y1774165D2*
Y1744021D1*
X733734D1*
X729423Y1745480D1*
X727997Y1746906D1*
X726572Y1749758D1*
Y1754069D1*
X727997Y1756954D1*
X729423Y1758380D1*
X733734Y1759806D1*
X729423Y1761265D1*
X727997Y1762691D1*
X726572Y1765543D1*
Y1768428D1*
X727997Y1771280D1*
X729423Y1772739D1*
X733734Y1774165D1*
X746668D1*
Y1759806D2*
X733734D1*
X697212Y1769854D2*
X700064Y1772739D1*
X704375Y1774165D1*
X710112D1*
X714423Y1772739D1*
X717308Y1769854D1*
Y1767002D1*
X715849Y1764117D1*
X714423Y1762691D1*
X711571Y1761265D1*
X702949Y1758380D1*
X700064Y1756954D1*
X698638Y1755495D1*
X697212Y1752643D1*
Y1748332D1*
X700064Y1745480D1*
X704375Y1744021D1*
X710112D1*
X714423Y1745480D1*
X717308Y1748332D1*
X687948Y1768395D2*
X685063Y1769854D1*
X680752Y1774132D1*
Y1744021D1*
X665752D2*
X651393Y1774132D1*
X671489D1*
X633507D2*
X637818Y1772706D1*
X640703Y1768395D1*
X642129Y1761232D1*
Y1756921D1*
X640703Y1749758D1*
X637818Y1745447D1*
X633507Y1744021D1*
X630655D1*
X626344Y1745447D1*
X623492Y1749758D1*
X622033Y1756921D1*
Y1761232D1*
X623492Y1768395D1*
X626344Y1772706D1*
X630655Y1774132D1*
X633507D1*
X623492Y1768395D2*
X640703Y1749758D1*
X790241Y2882483D2*
X777341D1*
X773030Y2883942D1*
X771571Y2885368D1*
X770145Y2888220D1*
Y2891105D1*
X771571Y2893957D1*
X773030Y2895416D1*
X777341Y2896842D1*
X790241D1*
Y2866698D1*
X780193Y2882483D2*
X770145Y2866698D1*
X742245Y2896842D2*
X760882D1*
Y2866698D1*
X742245D1*
X760882Y2882483D2*
X749408D1*
X712885Y2892531D2*
X715737Y2895416D1*
X720048Y2896842D1*
X725785D1*
X730096Y2895416D1*
X732981Y2892531D1*
Y2889679D1*
X731522Y2886794D1*
X730096Y2885368D1*
X727244Y2883942D1*
X718622Y2881057D1*
X715737Y2879631D1*
X714311Y2878172D1*
X712885Y2875320D1*
Y2871009D1*
X715737Y2868157D1*
X720048Y2866698D1*
X725785D1*
X730096Y2868157D1*
X732981Y2871009D1*
X684985Y2896842D2*
X703622D1*
Y2866698D1*
X684985D1*
X703622Y2882483D2*
X692148D1*
X665673Y2896842D2*
Y2866698D1*
X675721Y2896842D2*
X655625D1*
X1583608Y2417304D2*
D50*
X1629504D1*
X1638126Y2420156D1*
X1640978Y2423074D1*
X1643896Y2428778D1*
Y2434548D1*
X1640978Y2440252D1*
X1638126Y2443104D1*
X1629504Y2446022D1*
X1623800D1*
X1583608Y2398777D2*
X1643896D1*
Y2364355D1*
X1597934Y2302784D2*
X1592231Y2305636D1*
X1586460Y2311406D1*
X1583608Y2317110D1*
Y2328584D1*
X1586460Y2334354D1*
X1592231Y2340058D1*
X1597934Y2342976D1*
X1606556Y2345828D1*
X1620949D1*
X1629504Y2342976D1*
X1635274Y2340058D1*
X1640978Y2334354D1*
X1643896Y2328584D1*
Y2317110D1*
X1640978Y2311406D1*
X1635274Y2305636D1*
X1629504Y2302784D1*
X1583608Y2255539D2*
X1629504D1*
X1638126Y2258391D1*
X1640978Y2261309D1*
X1643896Y2267013D1*
Y2272783D1*
X1640978Y2278487D1*
X1638126Y2281339D1*
X1629504Y2284257D1*
X1623800D1*
X1583608Y2237012D2*
X1643896D1*
Y2202590D1*
X1597934Y2141019D2*
X1592231Y2143871D1*
X1586460Y2149641D1*
X1583608Y2155345D1*
Y2166819D1*
X1586460Y2172589D1*
X1592231Y2178293D1*
X1597934Y2181211D1*
X1606556Y2184063D1*
X1620949D1*
X1629504Y2181211D1*
X1635274Y2178293D1*
X1640978Y2172589D1*
X1643896Y2166819D1*
Y2155345D1*
X1640978Y2149641D1*
X1635274Y2143871D1*
X1629504Y2141019D1*
X1583608Y2093774D2*
X1629504D1*
X1638126Y2096626D1*
X1640978Y2099544D1*
X1643896Y2105248D1*
Y2111018D1*
X1640978Y2116722D1*
X1638126Y2119574D1*
X1629504Y2122492D1*
X1623800D1*
X1583608Y2075247D2*
X1643896D1*
Y2040825D1*
X1597934Y1979254D2*
X1592231Y1982106D1*
X1586460Y1987876D1*
X1583608Y1993580D1*
Y2005054D1*
X1586460Y2010824D1*
X1592231Y2016528D1*
X1597934Y2019446D1*
X1606556Y2022298D1*
X1620949D1*
X1629504Y2019446D1*
X1635274Y2016528D1*
X1640978Y2010824D1*
X1643896Y2005054D1*
Y1993580D1*
X1640978Y1987876D1*
X1635274Y1982106D1*
X1629504Y1979254D1*
X1583609Y1932009D2*
X1629504D1*
X1638126Y1934861D1*
X1640978Y1937779D1*
X1643896Y1943483D1*
Y1949253D1*
X1640978Y1954957D1*
X1638126Y1957809D1*
X1629504Y1960727D1*
X1623800D1*
X1583609Y1913482D2*
X1643896D1*
Y1879060D1*
X1597934Y1817489D2*
X1592230Y1820341D1*
X1586460Y1826111D1*
X1583608Y1831815D1*
Y1843289D1*
X1586460Y1849059D1*
X1592231Y1854763D1*
X1597934Y1857681D1*
X1606556Y1860533D1*
X1620949D1*
X1629504Y1857681D1*
X1635274Y1854763D1*
X1640978Y1849059D1*
X1643897Y1843289D1*
Y1831815D1*
X1640978Y1826111D1*
X1635274Y1820341D1*
X1629504Y1817489D1*
X781788Y2574080D2*
D51*
X779843Y2570233D1*
X774139Y2564485D1*
X814287D1*
X774095Y2525339D2*
X814287D1*
X774095Y2552134D1*
X814287D1*
X774139Y2490040D2*
Y2509141D1*
X791339Y2511042D1*
X789437Y2509141D1*
X787492Y2503393D1*
Y2497689D1*
X789437Y2491941D1*
X793240Y2488094D1*
X798988Y2486193D1*
X802790D1*
X808539Y2488094D1*
X812385Y2491941D1*
X814287Y2497689D1*
Y2503393D1*
X812385Y2509141D1*
X810440Y2511042D1*
X806637Y2512988D1*
X774139Y2464291D2*
X776040Y2469995D1*
X779843Y2471941D1*
X783689D1*
X787492Y2469995D1*
X789437Y2466192D1*
X791339Y2458543D1*
X793240Y2452795D1*
X797087Y2448993D1*
X800889Y2447091D1*
X806637D1*
X810440Y2448993D1*
X812385Y2450894D1*
X814287Y2456642D1*
Y2464291D1*
X812385Y2469995D1*
X810440Y2471940D1*
X806637Y2473842D1*
X800889D1*
X797087Y2471940D1*
X793240Y2468094D1*
X791339Y2462390D1*
X789437Y2454741D1*
X787492Y2450894D1*
X783689Y2448993D1*
X779843D1*
X776040Y2450894D1*
X774139Y2456642D1*
Y2464291D1*
X781788Y2434740D2*
X779843Y2430893D1*
X774139Y2425145D1*
X814287D1*
Y2405144D2*
X774139Y2385999D1*
Y2412794D1*
X1437712Y2682951D2*
D50*
Y2657085D1*
X1434860Y2648529D1*
X1431942Y2645611D1*
X1426238Y2642759D1*
X1417616D1*
X1411912Y2645611D1*
X1408994Y2648529D1*
X1406142Y2657085D1*
Y2682951D1*
X1466430D1*
X1406142Y2624232D2*
X1408994Y2621380D1*
X1406142Y2618462D1*
X1403224Y2621380D1*
X1406142Y2624232D1*
X1426238Y2621380D2*
X1466430D1*
X1437712Y2541614D2*
Y2515748D1*
X1434860Y2507192D1*
X1431942Y2504274D1*
X1426238Y2501422D1*
X1417616D1*
X1411912Y2504274D1*
X1408994Y2507192D1*
X1406142Y2515748D1*
Y2541614D1*
X1466430D1*
X1406142Y2482895D2*
X1408994Y2480043D1*
X1406142Y2477125D1*
X1403224Y2480043D1*
X1406142Y2482895D1*
X1426238Y2480043D2*
X1466430D1*
X1434860Y2424109D2*
X1429090Y2429879D1*
X1426238Y2435650D1*
Y2444205D1*
X1429090Y2449975D1*
X1434860Y2455679D1*
X1443482Y2458597D1*
X1449186D1*
X1457808Y2455679D1*
X1463512Y2449975D1*
X1466430Y2444205D1*
Y2435650D1*
X1463512Y2429879D1*
X1457808Y2424109D1*
X1426238Y2391256D2*
X1429090Y2396960D1*
X1434860Y2402730D1*
X1443482Y2405582D1*
X1449186D1*
X1457808Y2402730D1*
X1463512Y2396960D1*
X1466430Y2391256D1*
Y2382634D1*
X1463512Y2376864D1*
X1457808Y2371160D1*
X1449186Y2368242D1*
X1443482D1*
X1434860Y2371160D1*
X1429090Y2376864D1*
X1426238Y2382634D1*
Y2391256D1*
X1411978Y2288476D2*
X1409060Y2291394D1*
X1406208Y2288476D1*
X1409060Y2285624D1*
X1414830D1*
X1420534Y2288476D1*
X1423452Y2291394D1*
X1411978Y2277002D2*
X1409060Y2279920D1*
X1406208Y2277002D1*
X1409060Y2274150D1*
X1414830D1*
X1420534Y2277002D1*
X1423452Y2279920D1*
X1437712Y2255623D2*
Y2229756D1*
X1434860Y2221201D1*
X1431942Y2218282D1*
X1426238Y2215431D1*
X1417616D1*
X1411912Y2218282D1*
X1408994Y2221201D1*
X1406142Y2229756D1*
Y2255623D1*
X1466430D1*
X1426238Y2196903D2*
X1454956D1*
X1463512Y2194052D1*
X1466430Y2188281D1*
Y2179659D1*
X1463512Y2173956D1*
X1454956Y2165334D1*
X1426238D2*
X1466430D1*
X1426238Y2146806D2*
X1466430D1*
X1443482D2*
X1434860Y2143888D1*
X1429090Y2138184D1*
X1426238Y2132414D1*
Y2123792D1*
Y2105265D2*
X1486526D1*
X1434860D2*
X1429156Y2099495D1*
X1426238Y2093791D1*
Y2085169D1*
X1429156Y2079399D1*
X1434860Y2073695D1*
X1443482Y2070777D1*
X1449252D1*
X1457808Y2073695D1*
X1463578Y2079399D1*
X1466430Y2085169D1*
Y2093791D1*
X1463578Y2099495D1*
X1457808Y2105265D1*
X1406142Y2052250D2*
X1466430D1*
X1443482Y2033723D2*
Y1999301D1*
X1437712D1*
X1431942Y2002153D1*
X1429090Y2005005D1*
X1426238Y2010775D1*
Y2019397D1*
X1429090Y2025101D1*
X1434860Y2030871D1*
X1443482Y2033723D1*
X1449186D1*
X1457808Y2030871D1*
X1463512Y2025101D1*
X1466430Y2019397D1*
Y2010775D1*
X1463512Y2005005D1*
X1457808Y1999301D1*
X1411978Y1977856D2*
X1409060Y1980774D1*
X1406208Y1977856D1*
X1409060Y1975004D1*
X1414830D1*
X1420534Y1977856D1*
X1423452Y1980774D1*
X1411978Y1966382D2*
X1409060Y1969300D1*
X1406208Y1966382D1*
X1409060Y1963530D1*
X1414830D1*
X1420534Y1966382D1*
X1423452Y1969300D1*
X1466430Y1886681D2*
X1406208Y1846489D1*
X1411978Y1766723D2*
X1409060Y1769641D1*
X1406208Y1766723D1*
X1409060Y1763871D1*
X1414830D1*
X1420534Y1766723D1*
X1423452Y1769641D1*
X1411978Y1755249D2*
X1409060Y1758167D1*
X1406208Y1755249D1*
X1409060Y1752397D1*
X1414830D1*
X1420534Y1755249D1*
X1423452Y1758167D1*
X1406142Y1733870D2*
X1466430D1*
Y1699448D1*
X1406142Y1680921D2*
X1408994Y1678069D1*
X1406142Y1675151D1*
X1403224Y1678069D1*
X1406142Y1680921D1*
X1426238Y1678069D2*
X1466430D1*
X1406142Y1648002D2*
X1454956D1*
X1463512Y1645150D1*
X1466430Y1639380D1*
Y1633676D1*
X1426238Y1656624D2*
Y1636528D1*
X1443482Y1615149D2*
Y1580727D1*
X1437712D1*
X1431942Y1583579D1*
X1429090Y1586431D1*
X1426238Y1592201D1*
Y1600823D1*
X1429090Y1606527D1*
X1434860Y1612297D1*
X1443482Y1615149D1*
X1449186D1*
X1457808Y1612297D1*
X1463512Y1606527D1*
X1466430Y1600823D1*
Y1592201D1*
X1463512Y1586431D1*
X1457808Y1580727D1*
X1411978Y1559282D2*
X1409060Y1562200D1*
X1406208Y1559282D1*
X1409060Y1556430D1*
X1414830D1*
X1420534Y1559282D1*
X1423452Y1562200D1*
X1411978Y1547808D2*
X1409060Y1550726D1*
X1406208Y1547808D1*
X1409060Y1544956D1*
X1414830D1*
X1420534Y1547808D1*
X1423452Y1550726D1*
X1544811Y3167006D2*
D51*
Y3138310D1*
X1542910Y3132562D1*
X1539063Y3128759D1*
X1533315Y3126814D1*
X1529513D1*
X1523764Y3128759D1*
X1519918Y3132562D1*
X1518016Y3138310D1*
Y3167006D1*
X1478870Y3161258D2*
X1482673Y3165104D1*
X1488421Y3167006D1*
X1496070D1*
X1501818Y3165104D1*
X1505665Y3161258D1*
Y3157455D1*
X1503720Y3153608D1*
X1501818Y3151707D1*
X1498016Y3149806D1*
X1486520Y3145959D1*
X1482673Y3144058D1*
X1480772Y3142112D1*
X1478870Y3138310D1*
Y3132562D1*
X1482673Y3128759D1*
X1488421Y3126814D1*
X1496070D1*
X1501818Y3128759D1*
X1505665Y3132562D1*
X1466519Y3167006D2*
Y3126814D1*
X1449275D1*
X1443527Y3128759D1*
X1441626Y3130660D1*
X1439724Y3134463D1*
Y3140211D1*
X1441626Y3144058D1*
X1443527Y3145959D1*
X1449275Y3147860D1*
X1443527Y3149806D1*
X1441626Y3151707D1*
X1439724Y3155510D1*
Y3159356D1*
X1441626Y3163159D1*
X1443527Y3165104D1*
X1449275Y3167006D1*
X1466519D1*
Y3147860D2*
X1449275D1*
X1427373Y3146888D2*
X1405265D1*
X1364218Y3157455D2*
X1366119Y3161258D1*
X1369966Y3165104D1*
X1373768Y3167006D1*
X1381418D1*
X1385264Y3165104D1*
X1389067Y3161258D1*
X1391012Y3157455D1*
X1392914Y3151707D1*
Y3142112D1*
X1391012Y3136408D1*
X1389067Y3132562D1*
X1385264Y3128759D1*
X1381418Y3126814D1*
X1373768D1*
X1369966Y3128759D1*
X1366119Y3132562D1*
X1364218Y3136408D1*
X1598357Y1077481D2*
D53*
Y997097D1*
X1563868D1*
X1552372Y1000988D1*
X1548570Y1004790D1*
X1544767Y1012395D1*
Y1023891D1*
X1548570Y1031585D1*
X1552372Y1035387D1*
X1563868Y1039190D1*
X1552372Y1043081D1*
X1548570Y1046883D1*
X1544767Y1054489D1*
Y1062182D1*
X1548570Y1069787D1*
X1552372Y1073678D1*
X1563868Y1077481D1*
X1598357D1*
Y1039190D2*
X1563868D1*
X1458782Y997097D2*
X1489467Y1077481D1*
X1520065Y997097D1*
X1508568Y1023891D2*
X1470278D1*
X1376687Y1058380D2*
X1380490Y1065985D1*
X1388183Y1073678D1*
X1395788Y1077481D1*
X1411087D1*
X1418780Y1073678D1*
X1426385Y1065985D1*
X1430276Y1058380D1*
X1434079Y1046883D1*
Y1027694D1*
X1430276Y1016286D1*
X1426385Y1008593D1*
X1418780Y1000988D1*
X1411087Y997097D1*
X1395788D1*
X1388183Y1000988D1*
X1380490Y1008593D1*
X1376687Y1016286D1*
X1351984Y1077481D2*
Y997097D1*
X1298395Y1077481D2*
X1351984Y1023891D1*
X1332883Y1043081D2*
X1298395Y997097D1*
X2159694Y771614D2*
D50*
X2153924Y774532D1*
X2145302Y783088D1*
Y722866D1*
X783765Y771614D2*
X777995Y774532D1*
X769373Y783088D1*
Y722866D1*
X716424Y783088D2*
X745075D1*
X747927Y757288D1*
X745075Y760140D1*
X736453Y763058D1*
X727898D1*
X719275Y760140D1*
X713505Y754436D1*
X710653Y745814D1*
Y740110D1*
X713505Y731488D1*
X719275Y725718D1*
X727898Y722866D1*
X736453D1*
X745075Y725718D1*
X747927Y728636D1*
X750845Y734340D1*
M02*
