G04 DipTrace 3.3.1.3*
G04 BottomMask.gbr*
%MOIN*%
G04 #@! TF.FileFunction,Soldermask,Bot*
G04 #@! TF.Part,Single*
%ADD21C,0.070866*%
%ADD29C,0.23622*%
%ADD37C,0.066929*%
%ADD38C,0.082677*%
%ADD40C,0.055118*%
%ADD42C,0.07874*%
%ADD43R,0.07874X0.07874*%
%ADD45R,0.055118X0.055118*%
%ADD47R,0.066929X0.26378*%
%FSLAX26Y26*%
G04*
G70*
G90*
G75*
G01*
G04 BotMask*
%LPD*%
D47*
X746850Y559235D3*
X846850D3*
X946850D3*
X1046850D3*
X1146850D3*
X1246850D3*
X1346850D3*
X1446850D3*
X1546850D3*
X1646850D3*
X1746850D3*
X1846850D3*
X1946850D3*
X2046850D3*
X2146850D3*
D45*
X884350Y2543733D3*
Y2433496D3*
D43*
Y2706134D3*
D42*
Y2271095D3*
D29*
X580709Y1395898D3*
X2312992D3*
D40*
X640600Y2118733D3*
D45*
X690600Y2168733D3*
D40*
X740600Y2118733D3*
X634350Y1837483D3*
D45*
X684350Y1887483D3*
D40*
X734350Y1837483D3*
D21*
X634350Y3068731D3*
X811516D3*
D38*
X585138Y2970306D3*
X860728D3*
D37*
X1096850Y1178935D3*
Y1278935D3*
Y1378935D3*
Y1478935D3*
Y1578935D3*
Y1678935D3*
Y1778935D3*
Y1878935D3*
Y1978935D3*
Y2078935D3*
Y2178935D3*
Y2278935D3*
Y2378935D3*
Y2478935D3*
Y2578935D3*
Y2678935D3*
Y2778935D3*
Y2878935D3*
Y2978935D3*
Y3078935D3*
X1796850D3*
Y2978935D3*
Y2878935D3*
Y2778935D3*
Y2678935D3*
Y2578935D3*
Y2478935D3*
Y2378935D3*
Y2278935D3*
Y2178935D3*
Y2078935D3*
Y1978935D3*
Y1878935D3*
Y1778935D3*
Y1678935D3*
Y1578935D3*
Y1478935D3*
Y1378935D3*
Y1278935D3*
Y1178935D3*
M02*
