G04 DipTrace 3.3.1.3*
G04 Bottom.gbr*
%MOIN*%
G04 #@! TF.FileFunction,Copper,L2,Bot*
G04 #@! TF.Part,Single*
G04 #@! TA.AperFunction,Conductor*
%ADD13C,0.007874*%
%ADD14C,0.015748*%
%ADD18R,0.059055X0.255906*%
%ADD19R,0.047244X0.047244*%
G04 #@! TA.AperFunction,ComponentPad*
%ADD20R,0.070866X0.070866*%
%ADD21C,0.070866*%
%ADD22C,0.062992*%
%ADD23C,0.074803*%
%ADD24C,0.059055*%
G04 #@! TA.AperFunction,ViaPad*
%ADD27C,0.031*%
%FSLAX26Y26*%
G04*
G70*
G90*
G75*
G01*
G04 Bottom*
%LPD*%
X1746850Y559235D2*
D13*
Y849982D1*
X1684350Y912482D1*
Y2966435D1*
X1796850Y3078935D1*
X1846850Y559235D2*
Y862483D1*
X1709350Y999983D1*
Y2891435D1*
X1796850Y2978935D1*
X1946850Y559235D2*
Y843733D1*
X1865600Y924983D1*
Y2712483D1*
X1849639Y2728444D1*
X1774639D1*
X1746850Y2756233D1*
Y2828935D1*
X1796850Y2878935D1*
X2046850Y559235D2*
Y799982D1*
X1890600Y956233D1*
Y2762483D1*
X1874148Y2778935D1*
X1796850D1*
X884350Y2271095D2*
D14*
Y2433496D1*
X946850Y559235D2*
Y2208595D1*
X884350Y2271095D1*
X746850Y559235D2*
D13*
Y1456234D1*
X765600Y1474983D1*
X815600D1*
X1246850Y559235D2*
Y1556233D1*
X1265601Y1574983D1*
X1646850D1*
X1346850Y559235D2*
Y1462482D1*
X1365601Y1481233D1*
X1646850D1*
X1446850Y559235D2*
Y1362482D1*
X1465601Y1381233D1*
X1646852D1*
X1646850Y559235D2*
Y1137482D1*
X1546850Y559235D2*
Y1156440D1*
X1524878Y1178413D1*
X1479377D1*
X1146850Y559235D2*
Y1231233D1*
X1099148Y1278935D1*
X1096850D1*
X1103100Y781233D2*
Y1081234D1*
X1046850Y1137483D1*
Y1324982D1*
X1100803Y1378935D1*
X1096850D1*
X2090601Y799982D2*
D14*
Y1662482D1*
X1921850Y1831233D1*
X1796850Y1678935D2*
Y1681233D1*
X1740600Y1737483D1*
Y2522684D1*
X1796850Y2578935D1*
X846850Y559235D2*
D13*
Y2074983D1*
X2146850Y559235D2*
Y1799983D1*
X1921850Y2024983D1*
X1046850Y559235D2*
Y881231D1*
X1015600Y912482D1*
Y1806231D1*
X1088303Y1878935D1*
X1096850D1*
X884350Y2543733D2*
D14*
Y2706134D1*
X1096850Y2978935D2*
Y2974983D1*
X884350Y2762483D1*
Y2706134D1*
D27*
X1646850Y1137482D3*
X1646852Y1381233D3*
X815600Y1474983D3*
X846850Y2074983D3*
X1646850Y1481233D3*
Y1574983D3*
X1479377Y1178413D3*
X1103100Y781233D3*
X1921850Y2024983D3*
X2090601Y799982D3*
X1921850Y1831233D3*
D18*
X746850Y559235D3*
X846850D3*
X946850D3*
X1046850D3*
X1146850D3*
X1246850D3*
X1346850D3*
X1446850D3*
X1546850D3*
X1646850D3*
X1746850D3*
X1846850D3*
X1946850D3*
X2046850D3*
X2146850D3*
D19*
X884350Y2543733D3*
Y2433496D3*
D20*
Y2706134D3*
D21*
Y2271095D3*
D22*
X634350Y3068731D3*
X811516D3*
D23*
X585138Y2970306D3*
X860728D3*
D24*
X1096850Y1178935D3*
Y1278935D3*
Y1378935D3*
Y1478935D3*
Y1578935D3*
Y1678935D3*
Y1778935D3*
Y1878935D3*
Y1978935D3*
Y2078935D3*
Y2178935D3*
Y2278935D3*
Y2378935D3*
Y2478935D3*
Y2578935D3*
Y2678935D3*
Y2778935D3*
Y2878935D3*
Y2978935D3*
Y3078935D3*
X1796850D3*
Y2978935D3*
Y2878935D3*
Y2778935D3*
Y2678935D3*
Y2578935D3*
Y2478935D3*
Y2378935D3*
Y2278935D3*
Y2178935D3*
Y2078935D3*
Y1978935D3*
Y1878935D3*
Y1778935D3*
Y1678935D3*
Y1578935D3*
Y1478935D3*
Y1378935D3*
Y1278935D3*
Y1178935D3*
M02*
