M48
INCH
T01C0.0157
T02C0.0276
T03C0.0354
T04C0.0394
T05C0.0472
T06C0.0512
T07C0.2362
%
T01
X+016469Y+011375
X+014794Y+011784
X+016469Y+013812
X+016469Y+014812
X+016469Y+015750
X+019219Y+018312
X+019219Y+020250
X+008156Y+014750
X+011031Y+007812
X+020906Y+008000
T02
X+006406Y+021187
X+006906Y+021687
X+007406Y+021187
X+006844Y+018875
X+006344Y+018375
X+007344Y+018375
T03
X+010969Y+011789
X+010969Y+012789
X+010969Y+013789
X+010969Y+014789
X+010969Y+015789
X+010969Y+016789
X+010969Y+017789
X+010969Y+018789
X+010969Y+019789
X+010969Y+020789
X+010969Y+021789
X+010969Y+022789
X+010969Y+023789
X+010969Y+024789
X+010969Y+025789
X+010969Y+026789
X+010969Y+027789
X+010969Y+028789
X+010969Y+029789
X+010969Y+030789
X+017969Y+030789
X+017969Y+029789
X+017969Y+028789
X+017969Y+027789
X+017969Y+026789
X+017969Y+025789
X+017969Y+024789
X+017969Y+023789
X+017969Y+022789
X+017969Y+021789
X+017969Y+020789
X+017969Y+019789
X+017969Y+018789
X+017969Y+017789
X+017969Y+016789
X+017969Y+015789
X+017969Y+014789
X+017969Y+013789
X+017969Y+012789
X+017969Y+011789
T04
X+006344Y+030687
X+008115Y+030687
T05
X+008844Y+027061
X+008844Y+022711
T06
X+005851Y+029703
X+008607Y+029703
T07
X+005807Y+013959
X+023130Y+013959
T00
M30
