G04 DipTrace 3.3.1.3*
G04 Top.gbr*
%MOIN*%
G04 #@! TF.FileFunction,Copper,L1,Top*
G04 #@! TF.Part,Single*
G04 #@! TA.AperFunction,Conductor*
%ADD13C,0.007874*%
%ADD14C,0.015748*%
G04 #@! TA.AperFunction,CopperBalancing*
%ADD15C,0.025*%
%ADD16C,0.012992*%
%ADD18R,0.059055X0.255906*%
G04 #@! TA.AperFunction,ComponentPad*
%ADD19R,0.047244X0.047244*%
%ADD20R,0.070866X0.070866*%
%ADD21C,0.070866*%
%ADD22C,0.047244*%
%ADD23C,0.062992*%
%ADD24C,0.074803*%
%ADD25C,0.059055*%
G04 #@! TA.AperFunction,ViaPad*
%ADD28C,0.031*%
%FSLAX26Y26*%
G04*
G70*
G90*
G75*
G01*
G04 Top*
%LPD*%
X1946850Y559235D2*
D13*
Y731233D1*
X2115600Y899982D1*
Y2656233D1*
X2092898Y2678935D1*
X1796850D1*
X1846850Y559235D2*
Y731233D1*
X2084350Y968733D1*
Y2456233D1*
X2061648Y2478935D1*
X1796850D1*
X1746850Y559235D2*
Y731233D1*
X2053100Y1037482D1*
Y2362483D1*
X2036648Y2378935D1*
X1796850D1*
X1646850Y559235D2*
Y731233D1*
X2021850Y1106233D1*
Y2262482D1*
X2005398Y2278935D1*
X1796850D1*
X1546850Y559235D2*
Y731233D1*
X1990600Y1174982D1*
Y2162483D1*
X1974148Y2178935D1*
X1796850D1*
X1446850Y559235D2*
Y731233D1*
X1803101Y1087483D1*
X1859352D1*
X1959350Y1187482D1*
Y2062482D1*
X1942898Y2078935D1*
X1796850D1*
X946850Y559235D2*
Y837482D1*
X971850Y862482D1*
X1209350D1*
X1515600Y1168731D1*
Y1856233D1*
X1638302Y1978935D1*
X1796850D1*
Y1878935D2*
X1625802D1*
X1546850Y1799983D1*
Y1156233D1*
X1215600Y824982D1*
X1071850D1*
X1046850Y799982D1*
Y559235D1*
X1346850D2*
Y731233D1*
X1734350Y1118733D1*
X1840601D1*
X1859350Y1137482D1*
Y1716435D1*
X1796850Y1778935D1*
X815600Y1474983D2*
X1092899D1*
X1096850Y1478935D1*
X1646850Y1574983D2*
X1792899D1*
X1796850Y1578935D1*
X1646850Y1481233D2*
X1794552D1*
X1796850Y1478935D1*
X1646852Y1381233D2*
X1794552D1*
X1796850Y1378935D1*
X1246850Y559235D2*
Y806233D1*
X1719552Y1278935D1*
X1796850D1*
X1646850Y1137482D2*
X1688303Y1178935D1*
X1796850D1*
X1096850D2*
X1478854D1*
X1479377Y1178413D1*
X1146850Y559235D2*
Y737482D1*
X1103100Y781233D1*
X2046850Y559235D2*
D14*
Y756231D1*
X2090601Y799982D1*
X1921850Y1831233D2*
Y1829437D1*
X1763806D1*
X1734350Y1799982D1*
Y1741435D1*
X1796850Y1678935D1*
X811516Y3068731D2*
X907054D1*
X1096850Y2878935D1*
Y2578935D2*
X1086648D1*
X1040600Y2624983D1*
Y2822684D1*
X1096850Y2878935D1*
Y2578935D2*
D13*
X557052D1*
X521850Y2543733D1*
Y1737483D1*
X553100Y1706233D1*
X959350D1*
X1009350Y1756233D1*
Y1899983D1*
X1040600Y1931233D1*
X1178100D1*
X1334350Y2087483D1*
X1665600D1*
X1709350Y2131233D1*
Y2549983D1*
X1738302Y2578935D1*
X1796850D1*
X690600Y2168733D2*
X1086648D1*
X1096850Y2178935D1*
X684350Y1887483D2*
Y1943733D1*
X819552Y2078935D1*
X1096850D1*
X746850Y559235D2*
Y1556233D1*
X769552Y1578935D1*
X1096850D1*
X846850Y559235D2*
Y799982D1*
X784350Y862482D1*
Y1512482D1*
X803101Y1531233D1*
X1128101D1*
X1153101Y1556233D1*
Y1622684D1*
X1096850Y1678935D1*
X634350Y1837483D2*
X703100Y1768733D1*
X846850D1*
X871850Y1793733D1*
Y1999983D1*
X903100Y2031233D1*
X1203100D1*
X1259350Y2087483D1*
Y2706233D1*
X1284350Y2731233D1*
X2128100D1*
X2146850Y2712483D1*
Y559235D1*
X634350Y3068731D2*
Y3068733D1*
X728101Y3162483D1*
X1128101D1*
X1153101Y3137483D1*
Y2535185D1*
X1096850Y2478935D1*
X1921850Y2024983D2*
X1342899D1*
X1096850Y1778935D1*
D28*
X1646850Y1137482D3*
X1646852Y1381233D3*
X815600Y1474983D3*
X1646850Y1481233D3*
Y1574983D3*
X1479377Y1178413D3*
X1103100Y781233D3*
X1921850Y2024983D3*
X2090601Y799982D3*
X1921850Y1831233D3*
X436868Y3187613D2*
D15*
X708428D1*
X1147770D2*
X2444361D1*
X436868Y3162745D2*
X682842D1*
X1173391D2*
X2444361D1*
X436868Y3137876D2*
X657975D1*
X1186022D2*
X2444361D1*
X436868Y3113007D2*
X594388D1*
X724157D2*
X771584D1*
X851474D2*
X1049866D1*
X1186022D2*
X1749895D1*
X1843816D2*
X2444361D1*
X436868Y3088138D2*
X577199D1*
X699289D2*
X754360D1*
X868663D2*
X1039101D1*
X1186022D2*
X1739093D1*
X1854617D2*
X2444361D1*
X436868Y3063269D2*
X574113D1*
X694589D2*
X751273D1*
X871749D2*
X1040572D1*
X1186022D2*
X1740565D1*
X1853145D2*
X2444361D1*
X436868Y3038401D2*
X582438D1*
X686263D2*
X759599D1*
X863424D2*
X1055679D1*
X1186022D2*
X1755672D1*
X1838002D2*
X2444361D1*
X436868Y3013532D2*
X535574D1*
X654614D2*
X791248D1*
X910288D2*
X1050296D1*
X1186022D2*
X1750289D1*
X1843421D2*
X2444361D1*
X436868Y2988663D2*
X521435D1*
X648836D2*
X797026D1*
X924427D2*
X1039172D1*
X1186022D2*
X1739165D1*
X1854509D2*
X2444361D1*
X436868Y2963794D2*
X519067D1*
X651205D2*
X794657D1*
X926795D2*
X1040428D1*
X1186022D2*
X1740421D1*
X1853289D2*
X2444361D1*
X436868Y2938926D2*
X526997D1*
X643310D2*
X802588D1*
X918901D2*
X1055141D1*
X1186022D2*
X1755134D1*
X1838576D2*
X2444361D1*
X436868Y2914057D2*
X552332D1*
X617940D2*
X827922D1*
X893530D2*
X1050691D1*
X1186022D2*
X1750720D1*
X1842990D2*
X2444361D1*
X436868Y2889188D2*
X1039280D1*
X1186022D2*
X1739273D1*
X1854437D2*
X2444361D1*
X436868Y2864319D2*
X1040285D1*
X1186022D2*
X1740278D1*
X1853432D2*
X2444361D1*
X436868Y2839451D2*
X1054603D1*
X1186022D2*
X1754595D1*
X1839079D2*
X2444361D1*
X436868Y2814582D2*
X1051122D1*
X1186022D2*
X1751150D1*
X1842560D2*
X2444361D1*
X436868Y2789713D2*
X1039388D1*
X1186022D2*
X1739380D1*
X1854330D2*
X2444361D1*
X436868Y2764844D2*
X819920D1*
X948792D2*
X1040141D1*
X1186022D2*
X1740134D1*
X1853576D2*
X2444361D1*
X436868Y2739975D2*
X819920D1*
X948792D2*
X1054100D1*
X1186022D2*
X1247552D1*
X2164907D2*
X2444361D1*
X436868Y2715107D2*
X819920D1*
X948792D2*
X1051588D1*
X1186022D2*
X1227744D1*
X2179656D2*
X2444361D1*
X436868Y2690238D2*
X819920D1*
X948792D2*
X1039495D1*
X1186022D2*
X1226416D1*
X1292276D2*
X1739488D1*
X2179763D2*
X2444361D1*
X436868Y2665369D2*
X819920D1*
X948792D2*
X1039998D1*
X1186022D2*
X1226416D1*
X1292276D2*
X1739990D1*
X2179763D2*
X2444361D1*
X436868Y2640500D2*
X1053598D1*
X1186022D2*
X1226416D1*
X1292276D2*
X1753591D1*
X1840119D2*
X2082684D1*
X2179763D2*
X2444361D1*
X436868Y2615632D2*
X1052019D1*
X1186022D2*
X1226416D1*
X1292276D2*
X1752012D1*
X1841662D2*
X2082684D1*
X2179763D2*
X2444361D1*
X436868Y2590763D2*
X1039603D1*
X1186022D2*
X1226416D1*
X1292276D2*
X1739596D1*
X1854114D2*
X2082684D1*
X2179763D2*
X2444361D1*
X436868Y2565894D2*
X1039854D1*
X1186022D2*
X1226416D1*
X1292276D2*
X1739883D1*
X1853827D2*
X2082684D1*
X2179763D2*
X2444361D1*
X436868Y2541025D2*
X1053095D1*
X1186022D2*
X1226416D1*
X1292276D2*
X1753124D1*
X1840586D2*
X2082684D1*
X2179763D2*
X2444361D1*
X436868Y2516157D2*
X1052485D1*
X1179348D2*
X1226416D1*
X1292276D2*
X1752478D1*
X1841232D2*
X2082684D1*
X2179763D2*
X2444361D1*
X436868Y2491288D2*
X1039711D1*
X1154731D2*
X1226416D1*
X1292276D2*
X1739703D1*
X2179763D2*
X2444361D1*
X436868Y2466419D2*
X1039746D1*
X1153942D2*
X1226416D1*
X1292276D2*
X1739739D1*
X2179763D2*
X2444361D1*
X436868Y2441550D2*
X1052629D1*
X1141060D2*
X1226416D1*
X1292276D2*
X1752622D1*
X1841088D2*
X2051429D1*
X2179763D2*
X2444361D1*
X436868Y2416682D2*
X1052952D1*
X1140737D2*
X1226416D1*
X1292276D2*
X1752945D1*
X1840729D2*
X2051429D1*
X2179763D2*
X2444361D1*
X436868Y2391813D2*
X1039818D1*
X1153870D2*
X1226416D1*
X1292276D2*
X1739847D1*
X2179763D2*
X2444361D1*
X436868Y2366944D2*
X1039639D1*
X1154086D2*
X1226416D1*
X1292276D2*
X1739632D1*
X2179763D2*
X2444361D1*
X436868Y2342075D2*
X1052162D1*
X1141526D2*
X1226416D1*
X1292276D2*
X1752155D1*
X1841519D2*
X2020174D1*
X2179763D2*
X2444361D1*
X436868Y2317206D2*
X840517D1*
X928195D2*
X1053454D1*
X1140270D2*
X1226416D1*
X1292276D2*
X1753447D1*
X1840263D2*
X2020174D1*
X2179763D2*
X2444361D1*
X436868Y2292338D2*
X823688D1*
X945024D2*
X1039962D1*
X1153727D2*
X1226416D1*
X1292276D2*
X1739955D1*
X2179763D2*
X2444361D1*
X436868Y2267469D2*
X820028D1*
X948684D2*
X1039531D1*
X1154193D2*
X1226416D1*
X1292276D2*
X1739524D1*
X2179763D2*
X2444361D1*
X436868Y2242600D2*
X826881D1*
X941831D2*
X1051696D1*
X1141993D2*
X1226416D1*
X1292276D2*
X1751725D1*
X1841985D2*
X1988919D1*
X2179763D2*
X2444361D1*
X436868Y2217731D2*
X637987D1*
X743212D2*
X850421D1*
X918255D2*
X1053957D1*
X1139768D2*
X1226416D1*
X1292276D2*
X1753949D1*
X1839761D2*
X1988919D1*
X2179763D2*
X2444361D1*
X436868Y2192863D2*
X637987D1*
X1153619D2*
X1226416D1*
X1292276D2*
X1740098D1*
X2179763D2*
X2444361D1*
X436868Y2167994D2*
X628908D1*
X1154301D2*
X1226416D1*
X1292276D2*
X1739416D1*
X2179763D2*
X2444361D1*
X436868Y2143125D2*
X594316D1*
X1142423D2*
X1226416D1*
X1292276D2*
X1751258D1*
X1842416D2*
X1957664D1*
X2179763D2*
X2444361D1*
X436868Y2118256D2*
X588000D1*
X793198D2*
X1054459D1*
X1139265D2*
X1226416D1*
X1292276D2*
X1754452D1*
X1839258D2*
X1957664D1*
X2179763D2*
X2444361D1*
X436868Y2093388D2*
X594854D1*
X686335D2*
X694851D1*
X1153476D2*
X1219706D1*
X1292276D2*
X1740242D1*
X2179763D2*
X2444361D1*
X436868Y2068519D2*
X763618D1*
X1154409D2*
X1194838D1*
X1285637D2*
X1739309D1*
X2179763D2*
X2444361D1*
X436868Y2043650D2*
X738750D1*
X829800D2*
X869978D1*
X1261056D2*
X1316019D1*
X2179763D2*
X2444361D1*
X436868Y2018781D2*
X713882D1*
X804932D2*
X845434D1*
X1236189D2*
X1291151D1*
X2179763D2*
X2444361D1*
X436868Y1993913D2*
X689014D1*
X780065D2*
X838939D1*
X911329D2*
X1040356D1*
X1153332D2*
X1266283D1*
X1357369D2*
X1607757D1*
X1853325D2*
X1891099D1*
X2179763D2*
X2444361D1*
X436868Y1969044D2*
X664111D1*
X755197D2*
X838939D1*
X904762D2*
X1039208D1*
X1154480D2*
X1241416D1*
X1332502D2*
X1582889D1*
X1854473D2*
X1926409D1*
X2179763D2*
X2444361D1*
X436868Y1944175D2*
X651408D1*
X730329D2*
X838939D1*
X904762D2*
X1050404D1*
X1143284D2*
X1216548D1*
X1307634D2*
X1558022D1*
X1649072D2*
X1750433D1*
X1843277D2*
X1926409D1*
X2179763D2*
X2444361D1*
X436868Y1919306D2*
X631743D1*
X736968D2*
X838939D1*
X904762D2*
X1055500D1*
X1138189D2*
X1191680D1*
X1282766D2*
X1533154D1*
X1624204D2*
X1755528D1*
X1838182D2*
X1926409D1*
X2179763D2*
X2444361D1*
X436868Y1894437D2*
X631743D1*
X736968D2*
X838939D1*
X904762D2*
X1040536D1*
X1153188D2*
X1166812D1*
X1257899D2*
X1508286D1*
X1853181D2*
X1926409D1*
X2179763D2*
X2444361D1*
X436868Y1869569D2*
X593347D1*
X775364D2*
X838939D1*
X904762D2*
X1039136D1*
X1233031D2*
X1485751D1*
X1854581D2*
X1926409D1*
X2179763D2*
X2444361D1*
X436868Y1844700D2*
X582259D1*
X786452D2*
X838939D1*
X904762D2*
X1050009D1*
X1208163D2*
X1482665D1*
X1637087D2*
X1750002D1*
X1843708D2*
X1926409D1*
X2179763D2*
X2444361D1*
X436868Y1819831D2*
X584950D1*
X783761D2*
X838939D1*
X904762D2*
X1056074D1*
X1183295D2*
X1482665D1*
X1612219D2*
X1756067D1*
X1837643D2*
X1926409D1*
X2179763D2*
X2444361D1*
X436868Y1794962D2*
X605332D1*
X904762D2*
X1040679D1*
X1158428D2*
X1482665D1*
X1587351D2*
X1740672D1*
X1853038D2*
X1926409D1*
X2179763D2*
X2444361D1*
X436868Y1770094D2*
X656216D1*
X893746D2*
X1039029D1*
X1154660D2*
X1482665D1*
X1579780D2*
X1739022D1*
X1854653D2*
X1926409D1*
X2179763D2*
X2444361D1*
X436868Y1745225D2*
X681263D1*
X868663D2*
X1049615D1*
X1144110D2*
X1482665D1*
X1579780D2*
X1749607D1*
X1876111D2*
X1926409D1*
X2179763D2*
X2444361D1*
X436868Y1720356D2*
X1056648D1*
X1137076D2*
X1482665D1*
X1579780D2*
X1756641D1*
X1892044D2*
X1926409D1*
X2179763D2*
X2444361D1*
X436868Y1695487D2*
X1040823D1*
X1152866D2*
X1482665D1*
X1579780D2*
X1740816D1*
X1892295D2*
X1926409D1*
X2179763D2*
X2444361D1*
X436868Y1670619D2*
X1038957D1*
X1154731D2*
X1482665D1*
X1579780D2*
X1738950D1*
X1892295D2*
X1926409D1*
X2179763D2*
X2444361D1*
X436868Y1645750D2*
X1049220D1*
X1175580D2*
X1482665D1*
X1579780D2*
X1749213D1*
X1892295D2*
X1926409D1*
X2179763D2*
X2444361D1*
X436868Y1620881D2*
X1057222D1*
X1186022D2*
X1482665D1*
X1579780D2*
X1757215D1*
X1892295D2*
X1926409D1*
X2179763D2*
X2444361D1*
X436868Y1596012D2*
X741082D1*
X1186022D2*
X1482665D1*
X1579780D2*
X1608008D1*
X1892295D2*
X1926409D1*
X2179763D2*
X2444361D1*
X436868Y1571143D2*
X717829D1*
X1186022D2*
X1482665D1*
X1579780D2*
X1602518D1*
X1892295D2*
X1926409D1*
X2179763D2*
X2444361D1*
X1184372Y1546275D2*
X1482665D1*
X1579780D2*
X1613714D1*
X1892295D2*
X1926409D1*
X1163810Y1521406D2*
X1482665D1*
X1579780D2*
X1632123D1*
X1661560D2*
X1757825D1*
X1892295D2*
X1926409D1*
X1152543Y1496537D2*
X1482665D1*
X1579780D2*
X1605245D1*
X1892295D2*
X1926409D1*
X1154911Y1471668D2*
X1482665D1*
X1579780D2*
X1603451D1*
X1892295D2*
X1926409D1*
X1145222Y1446800D2*
X1482665D1*
X1579780D2*
X1620317D1*
X1673402D2*
X1748459D1*
X1892295D2*
X1926409D1*
X817277Y1421931D2*
X1058442D1*
X1135246D2*
X1482665D1*
X1579780D2*
X1634024D1*
X1659694D2*
X1758435D1*
X1892295D2*
X1926409D1*
X817277Y1397062D2*
X1041361D1*
X1152363D2*
X1482665D1*
X1579780D2*
X1605461D1*
X1892295D2*
X1926409D1*
X817277Y1372193D2*
X1038742D1*
X1154947D2*
X1482665D1*
X1579780D2*
X1603343D1*
X1892295D2*
X1926409D1*
X817277Y1347325D2*
X1048107D1*
X1145617D2*
X1482665D1*
X1579780D2*
X1619599D1*
X1674119D2*
X1748100D1*
X1892295D2*
X1926409D1*
X817277Y1322456D2*
X1059088D1*
X1134636D2*
X1482665D1*
X1579780D2*
X1759081D1*
X1892295D2*
X1926409D1*
X817277Y1297587D2*
X1041541D1*
X1152184D2*
X1482665D1*
X1579780D2*
X1692659D1*
X1892295D2*
X1926409D1*
X817277Y1272718D2*
X1038670D1*
X1155019D2*
X1482665D1*
X1579780D2*
X1667791D1*
X1892295D2*
X1926409D1*
X817277Y1247850D2*
X1047749D1*
X1145940D2*
X1482665D1*
X1579780D2*
X1642924D1*
X1734010D2*
X1747741D1*
X1892295D2*
X1926409D1*
X817277Y1222981D2*
X1059734D1*
X1133955D2*
X1482665D1*
X1579780D2*
X1618056D1*
X1709142D2*
X1759727D1*
X1892295D2*
X1926409D1*
X817277Y1198112D2*
X1041720D1*
X1579780D2*
X1593188D1*
X1892295D2*
X1924435D1*
X817277Y1173243D2*
X1038634D1*
X817277Y1148374D2*
X1047390D1*
X1146299D2*
X1447534D1*
X1703293D2*
X1724955D1*
X817277Y1123506D2*
X1086252D1*
X1107472D2*
X1424856D1*
X831612Y2768059D2*
X946276D1*
Y2644209D1*
X822425D1*
Y2768059D1*
X831612D1*
X946085Y2266236D2*
X944565Y2256639D1*
X941562Y2247397D1*
X937150Y2238739D1*
X931439Y2230878D1*
X924568Y2224007D1*
X916706Y2218295D1*
X908048Y2213883D1*
X898807Y2210881D1*
X889209Y2209361D1*
X879492D1*
X869894Y2210881D1*
X860653Y2213883D1*
X851995Y2218295D1*
X844133Y2224007D1*
X837262Y2230878D1*
X831550Y2238739D1*
X827139Y2247397D1*
X824136Y2256639D1*
X822616Y2266236D1*
Y2275954D1*
X824136Y2285551D1*
X827139Y2294793D1*
X831550Y2303451D1*
X837262Y2311312D1*
X844133Y2318183D1*
X851995Y2323895D1*
X860653Y2328306D1*
X869894Y2331309D1*
X879492Y2332829D1*
X889209D1*
X898807Y2331309D1*
X908048Y2328306D1*
X916706Y2323895D1*
X924568Y2318183D1*
X931439Y2311312D1*
X937150Y2303451D1*
X941562Y2294793D1*
X944565Y2285551D1*
X946085Y2275954D1*
Y2266236D1*
X690588Y2115523D2*
X690098Y2110893D1*
X688262Y2103247D1*
X685252Y2095981D1*
X681144Y2089276D1*
X676036Y2083297D1*
X670057Y2078189D1*
X663352Y2074081D1*
X656087Y2071071D1*
X648440Y2069236D1*
X640600Y2068619D1*
X632761Y2069236D1*
X625114Y2071071D1*
X617849Y2074081D1*
X611144Y2078189D1*
X605164Y2083297D1*
X600057Y2089276D1*
X595948Y2095981D1*
X592939Y2103247D1*
X591103Y2110893D1*
X590486Y2118733D1*
X591103Y2126572D1*
X592939Y2134219D1*
X595948Y2141484D1*
X600057Y2148189D1*
X605164Y2154169D1*
X611144Y2159276D1*
X617849Y2163385D1*
X625114Y2166394D1*
X632761Y2168230D1*
X640493Y2168843D1*
X640486Y2218847D1*
X740715D1*
Y2199146D1*
X1044598Y2199162D1*
X1046936Y2204367D1*
X1051530Y2211862D1*
X1057238Y2218547D1*
X1063923Y2224256D1*
X1071590Y2228928D1*
X1063923Y2233614D1*
X1057238Y2239323D1*
X1051530Y2246007D1*
X1046936Y2253502D1*
X1043573Y2261624D1*
X1041520Y2270171D1*
X1040831Y2278935D1*
X1041520Y2287698D1*
X1043573Y2296246D1*
X1046936Y2304367D1*
X1051530Y2311862D1*
X1057238Y2318547D1*
X1063923Y2324256D1*
X1071590Y2328928D1*
X1063923Y2333614D1*
X1057238Y2339323D1*
X1051530Y2346007D1*
X1046936Y2353502D1*
X1043573Y2361624D1*
X1041520Y2370171D1*
X1040831Y2378935D1*
X1041520Y2387698D1*
X1043573Y2396246D1*
X1046936Y2404367D1*
X1051530Y2411862D1*
X1057238Y2418547D1*
X1063923Y2424256D1*
X1071590Y2428928D1*
X1063923Y2433614D1*
X1057238Y2439323D1*
X1051530Y2446007D1*
X1046936Y2453502D1*
X1043573Y2461624D1*
X1041520Y2470171D1*
X1040831Y2478935D1*
X1041520Y2487698D1*
X1043573Y2496246D1*
X1046936Y2504367D1*
X1051530Y2511862D1*
X1057238Y2518547D1*
X1063923Y2524256D1*
X1071590Y2528928D1*
X1065507Y2532504D1*
X1059702Y2537004D1*
X1054537Y2542223D1*
X1050098Y2548074D1*
X1046463Y2554455D1*
X1043693Y2561256D1*
X1041837Y2568362D1*
X1040927Y2575649D1*
X1040978Y2582993D1*
X1041989Y2590267D1*
X1043943Y2597346D1*
X1046806Y2604109D1*
X1050529Y2610439D1*
X1055048Y2616227D1*
X1060285Y2621375D1*
X1066151Y2625794D1*
X1071602Y2628934D1*
X1063923Y2633614D1*
X1057238Y2639323D1*
X1051530Y2646007D1*
X1046936Y2653502D1*
X1043573Y2661624D1*
X1041520Y2670171D1*
X1040831Y2678935D1*
X1041520Y2687698D1*
X1043573Y2696246D1*
X1046936Y2704367D1*
X1051530Y2711862D1*
X1057238Y2718547D1*
X1063923Y2724256D1*
X1071590Y2728928D1*
X1063923Y2733614D1*
X1057238Y2739323D1*
X1051530Y2746007D1*
X1046936Y2753502D1*
X1043573Y2761624D1*
X1041520Y2770171D1*
X1040831Y2778935D1*
X1041520Y2787698D1*
X1043573Y2796246D1*
X1046936Y2804367D1*
X1051530Y2811862D1*
X1057238Y2818547D1*
X1063923Y2824256D1*
X1071590Y2828928D1*
X1065507Y2832504D1*
X1059702Y2837004D1*
X1054537Y2842223D1*
X1050098Y2848074D1*
X1046463Y2854455D1*
X1043693Y2861256D1*
X1041837Y2868362D1*
X1040927Y2875649D1*
X1040978Y2882993D1*
X1041989Y2890267D1*
X1043943Y2897346D1*
X1046806Y2904109D1*
X1050529Y2910439D1*
X1055048Y2916227D1*
X1060285Y2921375D1*
X1066151Y2925794D1*
X1071602Y2928934D1*
X1063923Y2933614D1*
X1057238Y2939323D1*
X1051530Y2946007D1*
X1046936Y2953502D1*
X1043573Y2961624D1*
X1041520Y2970171D1*
X1040831Y2978935D1*
X1041520Y2987698D1*
X1043573Y2996246D1*
X1046936Y3004367D1*
X1051530Y3011862D1*
X1057238Y3018547D1*
X1063923Y3024256D1*
X1071590Y3028928D1*
X1063923Y3033614D1*
X1057238Y3039323D1*
X1051530Y3046007D1*
X1046936Y3053502D1*
X1043573Y3061624D1*
X1041520Y3070171D1*
X1040831Y3078935D1*
X1041520Y3087698D1*
X1043573Y3096246D1*
X1046936Y3104367D1*
X1051530Y3111862D1*
X1057238Y3118547D1*
X1063923Y3124256D1*
X1071418Y3128849D1*
X1079104Y3132052D1*
X740731Y3132054D1*
X690776Y3082124D1*
X692160Y3073281D1*
Y3064182D1*
X690736Y3055194D1*
X687924Y3046540D1*
X683793Y3038433D1*
X678445Y3031071D1*
X672011Y3024637D1*
X664649Y3019288D1*
X656542Y3015157D1*
X647887Y3012345D1*
X638900Y3010922D1*
X634617Y3010754D1*
X639616Y3003691D1*
X644168Y2994757D1*
X647266Y2985222D1*
X648835Y2975319D1*
Y2965293D1*
X647266Y2955391D1*
X644168Y2945855D1*
X639616Y2936922D1*
X633723Y2928811D1*
X626633Y2921721D1*
X618522Y2915828D1*
X609589Y2911276D1*
X600053Y2908178D1*
X590151Y2906609D1*
X580125D1*
X570222Y2908178D1*
X560687Y2911276D1*
X551753Y2915828D1*
X543642Y2921721D1*
X536553Y2928811D1*
X530659Y2936922D1*
X526108Y2945855D1*
X523009Y2955391D1*
X521441Y2965293D1*
Y2975319D1*
X523009Y2985222D1*
X526108Y2994757D1*
X530659Y3003691D1*
X536553Y3011802D1*
X543642Y3018891D1*
X551753Y3024785D1*
X560687Y3029336D1*
X570222Y3032435D1*
X580125Y3034003D1*
X587860Y3034093D1*
X584907Y3038433D1*
X580776Y3046540D1*
X577964Y3055194D1*
X576541Y3064182D1*
Y3073281D1*
X577964Y3082268D1*
X580776Y3090923D1*
X584907Y3099030D1*
X590256Y3106392D1*
X596690Y3112826D1*
X604052Y3118174D1*
X612159Y3122306D1*
X620813Y3125117D1*
X629801Y3126541D1*
X638900D1*
X647730Y3125149D1*
X708339Y3185622D1*
X712202Y3188429D1*
X716456Y3190596D1*
X720997Y3192072D1*
X725714Y3192819D1*
X801592Y3192913D1*
X1130489Y3192819D1*
X1135205Y3192072D1*
X1139746Y3190596D1*
X1144000Y3188429D1*
X1147863Y3185622D1*
X1174618Y3159000D1*
X1177719Y3155369D1*
X1180214Y3151298D1*
X1182041Y3146887D1*
X1183156Y3142244D1*
X1183530Y3137483D1*
X1183437Y2532798D1*
X1182690Y2528082D1*
X1181214Y2523541D1*
X1179046Y2519286D1*
X1176240Y2515423D1*
X1151604Y2490655D1*
X1152697Y2483330D1*
Y2474540D1*
X1151322Y2465857D1*
X1148606Y2457497D1*
X1144615Y2449665D1*
X1139448Y2442553D1*
X1133232Y2436337D1*
X1126121Y2431170D1*
X1122283Y2428849D1*
X1129778Y2424256D1*
X1136462Y2418547D1*
X1142171Y2411862D1*
X1146764Y2404367D1*
X1150128Y2396246D1*
X1152180Y2387698D1*
X1152870Y2378935D1*
X1152180Y2370171D1*
X1150128Y2361624D1*
X1146764Y2353502D1*
X1142171Y2346007D1*
X1136462Y2339323D1*
X1129778Y2333614D1*
X1122111Y2328942D1*
X1129778Y2324256D1*
X1136462Y2318547D1*
X1142171Y2311862D1*
X1146764Y2304367D1*
X1150128Y2296246D1*
X1152180Y2287698D1*
X1152870Y2278935D1*
X1152180Y2270171D1*
X1150128Y2261624D1*
X1146764Y2253502D1*
X1142171Y2246007D1*
X1136462Y2239323D1*
X1129778Y2233614D1*
X1122111Y2228942D1*
X1129778Y2224256D1*
X1136462Y2218547D1*
X1142171Y2211862D1*
X1146764Y2204367D1*
X1150128Y2196246D1*
X1152180Y2187698D1*
X1152870Y2178935D1*
X1152180Y2170171D1*
X1150128Y2161624D1*
X1146764Y2153502D1*
X1142171Y2146007D1*
X1136462Y2139323D1*
X1129778Y2133614D1*
X1122111Y2128942D1*
X1129778Y2124256D1*
X1136462Y2118547D1*
X1142171Y2111862D1*
X1146764Y2104367D1*
X1150128Y2096246D1*
X1152180Y2087698D1*
X1152870Y2078935D1*
X1152180Y2070171D1*
X1150142Y2061673D1*
X1190497Y2061662D1*
X1228906Y2100072D1*
X1229015Y2708620D1*
X1229762Y2713336D1*
X1231237Y2717877D1*
X1233405Y2722132D1*
X1236212Y2725995D1*
X1262834Y2752749D1*
X1266465Y2755850D1*
X1270536Y2758345D1*
X1274947Y2760173D1*
X1279590Y2761287D1*
X1284350Y2761662D1*
X1743560D1*
X1741520Y2770171D1*
X1740831Y2778935D1*
X1741520Y2787698D1*
X1743573Y2796246D1*
X1746936Y2804367D1*
X1751530Y2811862D1*
X1757238Y2818547D1*
X1763923Y2824256D1*
X1771590Y2828928D1*
X1763923Y2833614D1*
X1757238Y2839323D1*
X1751530Y2846007D1*
X1746936Y2853502D1*
X1743573Y2861624D1*
X1741520Y2870171D1*
X1740831Y2878935D1*
X1741520Y2887698D1*
X1743573Y2896246D1*
X1746936Y2904367D1*
X1751530Y2911862D1*
X1757238Y2918547D1*
X1763923Y2924256D1*
X1771590Y2928928D1*
X1763923Y2933614D1*
X1757238Y2939323D1*
X1751530Y2946007D1*
X1746936Y2953502D1*
X1743573Y2961624D1*
X1741520Y2970171D1*
X1740831Y2978935D1*
X1741520Y2987698D1*
X1743573Y2996246D1*
X1746936Y3004367D1*
X1751530Y3011862D1*
X1757238Y3018547D1*
X1763923Y3024256D1*
X1771590Y3028928D1*
X1763923Y3033614D1*
X1757238Y3039323D1*
X1751530Y3046007D1*
X1746936Y3053502D1*
X1743573Y3061624D1*
X1741520Y3070171D1*
X1740831Y3078935D1*
X1741520Y3087698D1*
X1743573Y3096246D1*
X1746936Y3104367D1*
X1751530Y3111862D1*
X1757238Y3118547D1*
X1763923Y3124256D1*
X1771418Y3128849D1*
X1779539Y3132213D1*
X1788087Y3134265D1*
X1796850Y3134954D1*
X1805614Y3134265D1*
X1814161Y3132213D1*
X1822283Y3128849D1*
X1829778Y3124256D1*
X1836462Y3118547D1*
X1842171Y3111862D1*
X1846764Y3104367D1*
X1850128Y3096246D1*
X1852180Y3087698D1*
X1852870Y3078935D1*
X1852180Y3070171D1*
X1850128Y3061624D1*
X1846764Y3053502D1*
X1842171Y3046007D1*
X1836462Y3039323D1*
X1829778Y3033614D1*
X1822111Y3028942D1*
X1829778Y3024256D1*
X1836462Y3018547D1*
X1842171Y3011862D1*
X1846764Y3004367D1*
X1850128Y2996246D1*
X1852180Y2987698D1*
X1852870Y2978935D1*
X1852180Y2970171D1*
X1850128Y2961624D1*
X1846764Y2953502D1*
X1842171Y2946007D1*
X1836462Y2939323D1*
X1829778Y2933614D1*
X1822111Y2928942D1*
X1829778Y2924256D1*
X1836462Y2918547D1*
X1842171Y2911862D1*
X1846764Y2904367D1*
X1850128Y2896246D1*
X1852180Y2887698D1*
X1852870Y2878935D1*
X1852180Y2870171D1*
X1850128Y2861624D1*
X1846764Y2853502D1*
X1842171Y2846007D1*
X1836462Y2839323D1*
X1829778Y2833614D1*
X1822111Y2828942D1*
X1829778Y2824256D1*
X1836462Y2818547D1*
X1842171Y2811862D1*
X1846764Y2804367D1*
X1850128Y2796246D1*
X1852180Y2787698D1*
X1852870Y2778935D1*
X1852180Y2770171D1*
X1850142Y2761673D1*
X2130488Y2761568D1*
X2135204Y2760821D1*
X2139745Y2759346D1*
X2144000Y2757178D1*
X2147863Y2754371D1*
X2168367Y2733999D1*
X2171468Y2730369D1*
X2173963Y2726297D1*
X2175790Y2721886D1*
X2176905Y2717243D1*
X2177280Y2712483D1*
Y1556187D1*
X2446836Y1556233D1*
X2446850Y3212455D1*
X434370Y3212482D1*
X434350Y1556260D1*
X716403Y1556233D1*
X716796Y1560993D1*
X717910Y1565636D1*
X719738Y1570047D1*
X722233Y1574119D1*
X725334Y1577749D1*
X749790Y1602073D1*
X753653Y1604880D1*
X757908Y1607048D1*
X762449Y1608523D1*
X767165Y1609270D1*
X843043Y1609364D1*
X1049844D1*
X1054253Y1615317D1*
X1060469Y1621533D1*
X1067580Y1626699D1*
X1071418Y1629021D1*
X1063923Y1633614D1*
X1057238Y1639323D1*
X1051530Y1646007D1*
X1046936Y1653502D1*
X1043573Y1661624D1*
X1041520Y1670171D1*
X1040831Y1678935D1*
X1041520Y1687698D1*
X1043573Y1696246D1*
X1046936Y1704367D1*
X1051530Y1711862D1*
X1057238Y1718547D1*
X1063923Y1724256D1*
X1071590Y1728928D1*
X1063923Y1733614D1*
X1057238Y1739323D1*
X1051530Y1746007D1*
X1046936Y1753502D1*
X1043573Y1761624D1*
X1041520Y1770171D1*
X1040831Y1778935D1*
X1041520Y1787698D1*
X1043573Y1796246D1*
X1046936Y1804367D1*
X1051530Y1811862D1*
X1057238Y1818547D1*
X1063923Y1824256D1*
X1071590Y1828928D1*
X1063923Y1833614D1*
X1057238Y1839323D1*
X1051530Y1846007D1*
X1046936Y1853502D1*
X1043573Y1861624D1*
X1041520Y1870171D1*
X1040831Y1878935D1*
X1041520Y1887698D1*
X1043573Y1896246D1*
X1046936Y1904367D1*
X1051530Y1911862D1*
X1057238Y1918547D1*
X1063923Y1924256D1*
X1071590Y1928928D1*
X1063923Y1933614D1*
X1057238Y1939323D1*
X1051530Y1946007D1*
X1046936Y1953502D1*
X1043573Y1961624D1*
X1041520Y1970171D1*
X1040831Y1978935D1*
X1041520Y1987698D1*
X1043573Y1996246D1*
X1045289Y2000794D1*
X915704Y2000804D1*
X902263Y1987362D1*
X902186Y1791345D1*
X901439Y1786629D1*
X899963Y1782088D1*
X897796Y1777834D1*
X894989Y1773971D1*
X868367Y1747216D1*
X864736Y1744115D1*
X860665Y1741620D1*
X856254Y1739793D1*
X851611Y1738678D1*
X846841Y1738304D1*
X700713Y1738397D1*
X695997Y1739144D1*
X691456Y1740620D1*
X687201Y1742788D1*
X683338Y1745594D1*
X641011Y1787789D1*
X634350Y1787369D1*
X626511Y1787986D1*
X618864Y1789821D1*
X611599Y1792831D1*
X604894Y1796939D1*
X598914Y1802047D1*
X593807Y1808026D1*
X589698Y1814731D1*
X586689Y1821997D1*
X584853Y1829643D1*
X584236Y1837483D1*
X584853Y1845322D1*
X586689Y1852969D1*
X589698Y1860234D1*
X593807Y1866939D1*
X598914Y1872919D1*
X604894Y1878026D1*
X611599Y1882135D1*
X618864Y1885144D1*
X626511Y1886980D1*
X634243Y1887593D1*
X634236Y1937597D1*
X653937D1*
X654015Y1946120D1*
X654762Y1950836D1*
X656237Y1955377D1*
X658405Y1959632D1*
X661212Y1963495D1*
X714800Y2017215D1*
X799790Y2102073D1*
X803653Y2104880D1*
X807908Y2107048D1*
X812449Y2108523D1*
X817165Y2109270D1*
X893043Y2109364D1*
X1049821D1*
X1054253Y2115317D1*
X1060469Y2121533D1*
X1067580Y2126699D1*
X1071418Y2129021D1*
X1063923Y2133614D1*
X1058336Y2138308D1*
X786764Y2138303D1*
X789330Y2130432D1*
X790560Y2122665D1*
Y2114801D1*
X789330Y2107034D1*
X786900Y2099555D1*
X783330Y2092548D1*
X778708Y2086186D1*
X773147Y2080626D1*
X766785Y2076003D1*
X759778Y2072433D1*
X752299Y2070003D1*
X744532Y2068773D1*
X736668D1*
X728901Y2070003D1*
X721423Y2072433D1*
X714416Y2076003D1*
X708054Y2080626D1*
X702493Y2086186D1*
X697871Y2092548D1*
X694301Y2099555D1*
X691871Y2107034D1*
X690641Y2114801D1*
X690612Y2115523D1*
X721255Y1937597D2*
X734465D1*
Y1887610D1*
X742190Y1886980D1*
X749837Y1885144D1*
X757102Y1882135D1*
X763807Y1878026D1*
X769786Y1872919D1*
X774894Y1866939D1*
X779002Y1860234D1*
X782012Y1852969D1*
X783848Y1845322D1*
X784465Y1837483D1*
X783848Y1829643D1*
X782012Y1821997D1*
X779002Y1814731D1*
X774894Y1808026D1*
X769786Y1802047D1*
X766619Y1799157D1*
X834257Y1799162D1*
X841446Y1806362D1*
X841515Y2002370D1*
X842262Y2007086D1*
X843737Y2011627D1*
X845905Y2015882D1*
X848712Y2019745D1*
X877325Y2048490D1*
X832133Y2048506D1*
X721228Y1937577D1*
X869475Y3066894D2*
X868778Y3059583D1*
X867162Y3052419D1*
X864654Y3045517D1*
X861294Y3038986D1*
X858051Y3034139D1*
X865741Y3034003D1*
X875644Y3032435D1*
X885179Y3029336D1*
X894113Y3024785D1*
X902224Y3018891D1*
X909313Y3011802D1*
X915207Y3003691D1*
X919758Y2994757D1*
X922857Y2985222D1*
X924425Y2975319D1*
Y2965293D1*
X922857Y2955391D1*
X919758Y2945855D1*
X915207Y2936922D1*
X909313Y2928811D1*
X902224Y2921721D1*
X894113Y2915828D1*
X885179Y2911276D1*
X875644Y2908178D1*
X865741Y2906609D1*
X855715D1*
X845813Y2908178D1*
X836277Y2911276D1*
X827344Y2915828D1*
X819233Y2921721D1*
X812143Y2928811D1*
X806250Y2936922D1*
X801698Y2945855D1*
X798600Y2955391D1*
X797032Y2965293D1*
Y2975319D1*
X798600Y2985222D1*
X801698Y2994757D1*
X806250Y3003691D1*
X811306Y3010740D1*
X803417Y3011311D1*
X796225Y3012796D1*
X789277Y3015177D1*
X782687Y3018417D1*
X776558Y3022465D1*
X770991Y3027254D1*
X766073Y3032709D1*
X761885Y3038742D1*
X758492Y3045255D1*
X755950Y3052145D1*
X754299Y3059302D1*
X753566Y3066609D1*
X753763Y3073951D1*
X754886Y3081208D1*
X756917Y3088266D1*
X759824Y3095010D1*
X763560Y3101333D1*
X768065Y3107133D1*
X773268Y3112317D1*
X779083Y3116802D1*
X785419Y3120516D1*
X792174Y3123399D1*
X799239Y3125405D1*
X806501Y3126502D1*
X813843Y3126673D1*
X821148Y3125914D1*
X828298Y3124238D1*
X835179Y3121672D1*
X841681Y3118256D1*
X847699Y3114046D1*
X853136Y3109109D1*
X857906Y3103525D1*
X861931Y3097383D1*
X865148Y3090780D1*
X867505Y3083825D1*
X868964Y3076627D1*
X869504Y3068731D1*
X869475Y3066894D1*
X1688800Y1136388D2*
X1688326Y1130913D1*
X1686787Y1124506D1*
X1684266Y1118418D1*
X1680576Y1112486D1*
X1689095Y1116510D1*
X1714588Y1141871D1*
X1718451Y1144678D1*
X1722706Y1146846D1*
X1727256Y1148323D1*
X1704987Y1148506D1*
X1700932D1*
X1688836Y1136434D1*
X1675741Y1350797D2*
X1671534Y1347260D1*
X1665916Y1343817D1*
X1659828Y1341296D1*
X1653421Y1339758D1*
X1646852Y1339241D1*
X1640283Y1339758D1*
X1633875Y1341296D1*
X1627788Y1343817D1*
X1622169Y1347260D1*
X1617159Y1351540D1*
X1612879Y1356550D1*
X1609436Y1362169D1*
X1606915Y1368256D1*
X1605377Y1374664D1*
X1604860Y1381233D1*
X1605377Y1387802D1*
X1606915Y1394209D1*
X1609436Y1400297D1*
X1612879Y1405915D1*
X1617159Y1410926D1*
X1622169Y1415205D1*
X1627788Y1418648D1*
X1633875Y1421170D1*
X1640283Y1422708D1*
X1646852Y1423225D1*
X1653421Y1422708D1*
X1659828Y1421170D1*
X1665916Y1418648D1*
X1671534Y1415205D1*
X1675741Y1411669D1*
X1751530Y1411862D1*
X1757238Y1418547D1*
X1763923Y1424256D1*
X1771590Y1428928D1*
X1763923Y1433614D1*
X1757238Y1439323D1*
X1751530Y1446007D1*
X1748456Y1450789D1*
X1675812Y1450804D1*
X1671533Y1447260D1*
X1665914Y1443817D1*
X1659827Y1441296D1*
X1653419Y1439758D1*
X1646850Y1439241D1*
X1640281Y1439758D1*
X1633874Y1441296D1*
X1627786Y1443817D1*
X1622168Y1447260D1*
X1617157Y1451540D1*
X1612878Y1456550D1*
X1609435Y1462169D1*
X1606914Y1468256D1*
X1605375Y1474664D1*
X1604858Y1481233D1*
X1605375Y1487802D1*
X1606914Y1494209D1*
X1609435Y1500297D1*
X1612878Y1505915D1*
X1617157Y1510926D1*
X1622168Y1515205D1*
X1627786Y1518648D1*
X1633874Y1521170D1*
X1640281Y1522708D1*
X1646850Y1523225D1*
X1653419Y1522708D1*
X1659827Y1521170D1*
X1665914Y1518648D1*
X1671533Y1515205D1*
X1675739Y1511669D1*
X1751530Y1511862D1*
X1757238Y1518547D1*
X1763923Y1524256D1*
X1771590Y1528928D1*
X1763923Y1533614D1*
X1757238Y1539323D1*
X1752668Y1544563D1*
X1675809Y1544554D1*
X1671533Y1541011D1*
X1665914Y1537568D1*
X1659827Y1535046D1*
X1653419Y1533508D1*
X1646850Y1532991D1*
X1640281Y1533508D1*
X1633874Y1535046D1*
X1627786Y1537568D1*
X1622168Y1541011D1*
X1617157Y1545290D1*
X1612878Y1550301D1*
X1609435Y1555919D1*
X1606914Y1562007D1*
X1605375Y1568414D1*
X1604858Y1574983D1*
X1605375Y1581552D1*
X1606914Y1587960D1*
X1609435Y1594047D1*
X1612878Y1599666D1*
X1617157Y1604676D1*
X1622168Y1608956D1*
X1627786Y1612399D1*
X1633874Y1614920D1*
X1640281Y1616459D1*
X1646850Y1616975D1*
X1653419Y1616459D1*
X1659827Y1614920D1*
X1665914Y1612399D1*
X1671533Y1608956D1*
X1675739Y1605419D1*
X1747506Y1605413D1*
X1751530Y1611862D1*
X1757238Y1618547D1*
X1763923Y1624256D1*
X1771590Y1628928D1*
X1765507Y1632504D1*
X1759702Y1637004D1*
X1754537Y1642223D1*
X1750098Y1648074D1*
X1746463Y1654455D1*
X1743693Y1661256D1*
X1741837Y1668362D1*
X1740927Y1675649D1*
X1740978Y1682993D1*
X1741989Y1690267D1*
X1743943Y1697346D1*
X1746806Y1704109D1*
X1750529Y1710439D1*
X1755048Y1716227D1*
X1760285Y1721375D1*
X1766151Y1725794D1*
X1771602Y1728934D1*
X1763923Y1733614D1*
X1757238Y1739323D1*
X1751530Y1746007D1*
X1746936Y1753502D1*
X1743573Y1761624D1*
X1741520Y1770171D1*
X1740831Y1778935D1*
X1741520Y1787698D1*
X1743573Y1796246D1*
X1746936Y1804367D1*
X1751530Y1811862D1*
X1757238Y1818547D1*
X1763923Y1824256D1*
X1771590Y1828928D1*
X1763923Y1833614D1*
X1757238Y1839323D1*
X1751530Y1846007D1*
X1749859Y1848507D1*
X1638422Y1848506D1*
X1577261Y1787361D1*
X1577280Y1179725D1*
X1699790Y1302073D1*
X1703653Y1304880D1*
X1707908Y1307048D1*
X1712449Y1308523D1*
X1717165Y1309270D1*
X1749803Y1309364D1*
X1754253Y1315317D1*
X1760469Y1321533D1*
X1767580Y1326699D1*
X1771418Y1329021D1*
X1763923Y1333614D1*
X1757238Y1339323D1*
X1751530Y1346007D1*
X1748456Y1350789D1*
X1675812Y1350804D1*
X844489Y1444547D2*
X840282Y1441011D1*
X834664Y1437568D1*
X828576Y1435046D1*
X822169Y1433508D1*
X814789Y1433023D1*
X814780Y1112481D1*
X1416317Y1112482D1*
X1451139Y1147304D1*
X1442109Y1148506D1*
X1143875D1*
X1139448Y1142553D1*
X1133232Y1136337D1*
X1126121Y1131170D1*
X1118288Y1127179D1*
X1109928Y1124463D1*
X1101246Y1123088D1*
X1092455D1*
X1083773Y1124463D1*
X1075413Y1127179D1*
X1067580Y1131170D1*
X1060469Y1136337D1*
X1054253Y1142553D1*
X1049086Y1149665D1*
X1045095Y1157497D1*
X1042379Y1165857D1*
X1041003Y1174540D1*
Y1183330D1*
X1042379Y1192012D1*
X1045095Y1200373D1*
X1049086Y1208205D1*
X1054253Y1215317D1*
X1060469Y1221533D1*
X1067580Y1226699D1*
X1071418Y1229021D1*
X1063923Y1233614D1*
X1057238Y1239323D1*
X1051530Y1246007D1*
X1046936Y1253502D1*
X1043573Y1261624D1*
X1041520Y1270171D1*
X1040831Y1278935D1*
X1041520Y1287698D1*
X1043573Y1296246D1*
X1046936Y1304367D1*
X1051530Y1311862D1*
X1057238Y1318547D1*
X1063923Y1324256D1*
X1071590Y1328928D1*
X1063923Y1333614D1*
X1057238Y1339323D1*
X1051530Y1346007D1*
X1046936Y1353502D1*
X1043573Y1361624D1*
X1041520Y1370171D1*
X1040831Y1378935D1*
X1041520Y1387698D1*
X1043573Y1396246D1*
X1046936Y1404367D1*
X1051530Y1411862D1*
X1057238Y1418547D1*
X1063923Y1424256D1*
X1071590Y1428928D1*
X1063923Y1433614D1*
X1057238Y1439323D1*
X1052668Y1444563D1*
X844544Y1444554D1*
X1451036Y1209356D2*
X1454694Y1212385D1*
X1460313Y1215828D1*
X1466400Y1218349D1*
X1472808Y1219888D1*
X1479377Y1220405D1*
X1485165Y1219980D1*
X1485264Y1858620D1*
X1486011Y1863336D1*
X1487487Y1867877D1*
X1489655Y1872132D1*
X1492461Y1875995D1*
X1546049Y1929715D1*
X1610879Y1994546D1*
X1355490Y1994554D1*
X1151604Y1790655D1*
X1152697Y1783330D1*
Y1774540D1*
X1151322Y1765857D1*
X1148606Y1757497D1*
X1144615Y1749665D1*
X1139448Y1742553D1*
X1133232Y1736337D1*
X1126121Y1731170D1*
X1122283Y1728849D1*
X1129778Y1724256D1*
X1136462Y1718547D1*
X1142171Y1711862D1*
X1146764Y1704367D1*
X1150128Y1696246D1*
X1152180Y1687698D1*
X1152870Y1678935D1*
X1152180Y1670171D1*
X1151594Y1667222D1*
X1176240Y1642446D1*
X1179046Y1638583D1*
X1181214Y1634329D1*
X1182689Y1629788D1*
X1183436Y1625072D1*
X1183530Y1556233D1*
X1183156Y1551473D1*
X1182041Y1546830D1*
X1180214Y1542418D1*
X1177719Y1538347D1*
X1174611Y1534710D1*
X1147863Y1508094D1*
X1145979Y1506610D1*
X1148606Y1500373D1*
X1151322Y1492012D1*
X1152697Y1483330D1*
Y1474540D1*
X1151322Y1465857D1*
X1148606Y1457497D1*
X1144615Y1449665D1*
X1139448Y1442553D1*
X1133232Y1436337D1*
X1126121Y1431170D1*
X1122283Y1428849D1*
X1129778Y1424256D1*
X1136462Y1418547D1*
X1142171Y1411862D1*
X1146764Y1404367D1*
X1150128Y1396246D1*
X1152180Y1387698D1*
X1152870Y1378935D1*
X1152180Y1370171D1*
X1150128Y1361624D1*
X1146764Y1353502D1*
X1142171Y1346007D1*
X1136462Y1339323D1*
X1129778Y1333614D1*
X1122111Y1328942D1*
X1129778Y1324256D1*
X1136462Y1318547D1*
X1142171Y1311862D1*
X1146764Y1304367D1*
X1150128Y1296246D1*
X1152180Y1287698D1*
X1152870Y1278935D1*
X1152180Y1270171D1*
X1150128Y1261624D1*
X1146764Y1253502D1*
X1142171Y1246007D1*
X1136462Y1239323D1*
X1129778Y1233614D1*
X1122111Y1228942D1*
X1129778Y1224256D1*
X1136462Y1218547D1*
X1142171Y1211862D1*
X1143842Y1209362D1*
X1450991Y1209364D1*
X1928912Y1983606D2*
X1921850Y1982991D1*
X1915281Y1983508D1*
X1908874Y1985046D1*
X1902786Y1987568D1*
X1897168Y1991011D1*
X1892961Y1994547D1*
X1850620Y1994554D1*
X1852180Y1987698D1*
X1852870Y1978935D1*
X1852180Y1970171D1*
X1850128Y1961624D1*
X1846764Y1953502D1*
X1842171Y1946007D1*
X1836462Y1939323D1*
X1829778Y1933614D1*
X1822111Y1928942D1*
X1829778Y1924256D1*
X1836462Y1918547D1*
X1842171Y1911862D1*
X1846764Y1904367D1*
X1850128Y1896246D1*
X1852180Y1887698D1*
X1852870Y1878935D1*
X1852180Y1870171D1*
X1850128Y1861624D1*
X1846764Y1853502D1*
X1842171Y1846007D1*
X1836462Y1839323D1*
X1829778Y1833614D1*
X1822111Y1828942D1*
X1829778Y1824256D1*
X1836462Y1818547D1*
X1842171Y1811862D1*
X1846764Y1804367D1*
X1850128Y1796246D1*
X1852180Y1787698D1*
X1852870Y1778935D1*
X1852180Y1770171D1*
X1851594Y1767222D1*
X1882489Y1736197D1*
X1885296Y1732334D1*
X1887463Y1728080D1*
X1888939Y1723538D1*
X1889686Y1718822D1*
X1889780Y1642944D1*
X1889801Y1160966D1*
X1928902Y1200067D1*
X1928921Y1983573D1*
X1122111Y1928928D2*
X1129778Y1924256D1*
X1136462Y1918547D1*
X1142171Y1911862D1*
X1146764Y1904367D1*
X1150128Y1896246D1*
X1152180Y1887698D1*
X1152870Y1878935D1*
X1152832Y1877956D1*
X1323137Y2048122D1*
X1327000Y2050928D1*
X1331254Y2053096D1*
X1335795Y2054572D1*
X1340512Y2055319D1*
X1416390Y2055413D1*
X1745986D1*
X1743573Y2061624D1*
X1741520Y2070171D1*
X1740831Y2078935D1*
X1741520Y2087698D1*
X1743573Y2096246D1*
X1746936Y2104367D1*
X1751530Y2111862D1*
X1757238Y2118547D1*
X1763923Y2124256D1*
X1771590Y2128928D1*
X1763923Y2133614D1*
X1757238Y2139323D1*
X1751530Y2146007D1*
X1746936Y2153502D1*
X1743573Y2161624D1*
X1741520Y2170171D1*
X1740831Y2178935D1*
X1741520Y2187698D1*
X1743573Y2196246D1*
X1746936Y2204367D1*
X1751530Y2211862D1*
X1757238Y2218547D1*
X1763923Y2224256D1*
X1771590Y2228928D1*
X1763923Y2233614D1*
X1757238Y2239323D1*
X1751530Y2246007D1*
X1746936Y2253502D1*
X1743573Y2261624D1*
X1741520Y2270171D1*
X1740831Y2278935D1*
X1741520Y2287698D1*
X1743573Y2296246D1*
X1746936Y2304367D1*
X1751530Y2311862D1*
X1757238Y2318547D1*
X1763923Y2324256D1*
X1771590Y2328928D1*
X1763923Y2333614D1*
X1757238Y2339323D1*
X1751530Y2346007D1*
X1746936Y2353502D1*
X1743573Y2361624D1*
X1741520Y2370171D1*
X1740831Y2378935D1*
X1741520Y2387698D1*
X1743573Y2396246D1*
X1746936Y2404367D1*
X1751530Y2411862D1*
X1757238Y2418547D1*
X1763923Y2424256D1*
X1771590Y2428928D1*
X1763923Y2433614D1*
X1757238Y2439323D1*
X1751530Y2446007D1*
X1746936Y2453502D1*
X1743573Y2461624D1*
X1741520Y2470171D1*
X1740831Y2478935D1*
X1741520Y2487698D1*
X1743573Y2496246D1*
X1746936Y2504367D1*
X1751530Y2511862D1*
X1757238Y2518547D1*
X1763923Y2524256D1*
X1771590Y2528928D1*
X1765507Y2532504D1*
X1759702Y2537004D1*
X1754537Y2542223D1*
X1750098Y2548074D1*
X1746463Y2554455D1*
X1743693Y2561256D1*
X1741837Y2568362D1*
X1740927Y2575649D1*
X1740978Y2582993D1*
X1741989Y2590267D1*
X1743943Y2597346D1*
X1746806Y2604109D1*
X1750529Y2610439D1*
X1755048Y2616227D1*
X1760285Y2621375D1*
X1766151Y2625794D1*
X1771602Y2628934D1*
X1763923Y2633614D1*
X1757238Y2639323D1*
X1751530Y2646007D1*
X1746936Y2653502D1*
X1743573Y2661624D1*
X1741520Y2670171D1*
X1740831Y2678935D1*
X1741520Y2687698D1*
X1743573Y2696246D1*
X1745289Y2700794D1*
X1296987Y2700803D1*
X1289755Y2693604D1*
X1289686Y2085095D1*
X1288939Y2080379D1*
X1287463Y2075838D1*
X1285296Y2071583D1*
X1282489Y2067721D1*
X1228901Y2014000D1*
X1222863Y2008094D1*
X1219000Y2005288D1*
X1214745Y2003120D1*
X1210204Y2001644D1*
X1205488Y2000897D1*
X1148449Y2000804D1*
X1151322Y1992012D1*
X1152697Y1983330D1*
Y1974540D1*
X1151322Y1965857D1*
X1148606Y1957497D1*
X1144615Y1949665D1*
X1139448Y1942553D1*
X1133232Y1936337D1*
X1126121Y1931170D1*
X1122111Y1928942D1*
X1843842Y2648507D2*
X1839448Y2642553D1*
X1833232Y2636337D1*
X1826121Y2631170D1*
X1822197Y2628892D1*
X1828514Y2625148D1*
X1834287Y2620609D1*
X1839417Y2615353D1*
X1843815Y2609472D1*
X1847406Y2603066D1*
X1850128Y2596246D1*
X1851935Y2589128D1*
X1852795Y2581834D1*
X1852750Y2575263D1*
X1851789Y2567982D1*
X1849884Y2560890D1*
X1847068Y2554107D1*
X1843389Y2547752D1*
X1838910Y2541932D1*
X1833708Y2536748D1*
X1827873Y2532289D1*
X1822111Y2528942D1*
X1829778Y2524256D1*
X1836462Y2518547D1*
X1842171Y2511862D1*
X1843842Y2509362D1*
X2064036Y2509270D1*
X2068752Y2508523D1*
X2073293Y2507048D1*
X2077548Y2504880D1*
X2081410Y2502073D1*
X2083171Y2500445D1*
X2085171Y2507594D1*
Y2643631D1*
X2080305Y2648494D1*
X1843897Y2648506D1*
X1843842Y2448507D2*
X1839448Y2442553D1*
X1833232Y2436337D1*
X1826121Y2431170D1*
X1822283Y2428849D1*
X1829778Y2424256D1*
X1836462Y2418547D1*
X1842171Y2411862D1*
X1843842Y2409362D1*
X2039036Y2409270D1*
X2043752Y2408523D1*
X2048293Y2407048D1*
X2052555Y2404875D1*
X2053921Y2410990D1*
Y2443609D1*
X2049056Y2448494D1*
X1843867Y2448506D1*
X1843842Y2348507D2*
X1839448Y2342553D1*
X1833232Y2336337D1*
X1826121Y2331170D1*
X1822283Y2328849D1*
X1829778Y2324256D1*
X1836462Y2318547D1*
X1842171Y2311862D1*
X1843842Y2309362D1*
X2007785Y2309270D1*
X2012501Y2308523D1*
X2017042Y2307048D1*
X2021305Y2304875D1*
X2022671Y2305199D1*
Y2348511D1*
X1843914Y2348506D1*
X1843842Y2248507D2*
X1839448Y2242553D1*
X1833232Y2236337D1*
X1826121Y2231170D1*
X1822283Y2228849D1*
X1829778Y2224256D1*
X1836462Y2218547D1*
X1842171Y2211862D1*
X1843842Y2209362D1*
X1976536Y2209270D1*
X1981252Y2208523D1*
X1985793Y2207048D1*
X1990055Y2204875D1*
X1991421Y2208595D1*
Y2248534D1*
X1843883Y2248506D1*
X1843842Y2148507D2*
X1839448Y2142553D1*
X1833232Y2136337D1*
X1826121Y2131170D1*
X1822283Y2128849D1*
X1829778Y2124256D1*
X1836462Y2118547D1*
X1842171Y2111862D1*
X1843842Y2109362D1*
X1945285Y2109270D1*
X1950001Y2108523D1*
X1954542Y2107048D1*
X1958805Y2104875D1*
X1960170Y2111990D1*
Y2148484D1*
X1843853Y2148506D1*
X1771590Y1928942D2*
X1763923Y1933614D1*
X1757238Y1939323D1*
X1751530Y1946007D1*
X1749859Y1948507D1*
X1650909Y1948506D1*
X1546016Y1843616D1*
X1551317Y1847483D1*
X1606040Y1902073D1*
X1609903Y1904880D1*
X1614157Y1907048D1*
X1618698Y1908523D1*
X1623414Y1909270D1*
X1699293Y1909364D1*
X1749782D1*
X1754253Y1915317D1*
X1760469Y1921533D1*
X1767580Y1926699D1*
X1771590Y1928928D1*
Y1228942D2*
X1763923Y1233614D1*
X1757238Y1239323D1*
X1751530Y1246007D1*
X1749859Y1248507D1*
X1732151Y1248506D1*
X1693036Y1209385D1*
X1749845Y1209364D1*
X1754253Y1215317D1*
X1760469Y1221533D1*
X1767580Y1226699D1*
X1771590Y1228928D1*
X811516Y3126684D2*
D16*
Y3010779D1*
D18*
X746850Y559235D3*
X846850D3*
X946850D3*
X1046850D3*
X1146850D3*
X1246850D3*
X1346850D3*
X1446850D3*
X1546850D3*
X1646850D3*
X1746850D3*
X1846850D3*
X1946850D3*
X2046850D3*
X2146850D3*
D20*
X884350Y2706134D3*
D21*
Y2271095D3*
D22*
X640600Y2118733D3*
D19*
X690600Y2168733D3*
D22*
X740600Y2118733D3*
X634350Y1837483D3*
D19*
X684350Y1887483D3*
D22*
X734350Y1837483D3*
D23*
X634350Y3068731D3*
X811516D3*
D24*
X585138Y2970306D3*
X860728D3*
D25*
X1096850Y1178935D3*
Y1278935D3*
Y1378935D3*
Y1478935D3*
Y1578935D3*
Y1678935D3*
Y1778935D3*
Y1878935D3*
Y1978935D3*
Y2078935D3*
Y2178935D3*
Y2278935D3*
Y2378935D3*
Y2478935D3*
Y2578935D3*
Y2678935D3*
Y2778935D3*
Y2878935D3*
Y2978935D3*
Y3078935D3*
X1796850D3*
Y2978935D3*
Y2878935D3*
Y2778935D3*
Y2678935D3*
Y2578935D3*
Y2478935D3*
Y2378935D3*
Y2278935D3*
Y2178935D3*
Y2078935D3*
Y1978935D3*
Y1878935D3*
Y1778935D3*
Y1678935D3*
Y1578935D3*
Y1478935D3*
Y1378935D3*
Y1278935D3*
Y1178935D3*
M02*
